<svg width="766" height="779" viewBox="0 0 766 779" fill="none" xmlns="http://www.w3.org/2000/svg">
<path d="M764.943 150.104C764.943 232.69 593.941 299.639 383 299.639C172.058 299.639 1.05664 232.69 1.05664 150.104C1.05664 67.519 172.058 0.570282 383 0.570282C593.941 0.570282 764.943 67.519 764.943 150.104Z" stroke="#6A84A7" stroke-width="0.6" stroke-linecap="round" stroke-linejoin="round"/>
<path d="M742.01 155.384C742.01 233.11 581.275 296.119 382.999 296.119C184.723 296.119 23.9883 233.11 23.9883 155.384C23.9883 77.6587 184.723 14.6496 382.999 14.6496C581.275 14.6496 742.01 77.6587 742.01 155.384Z" stroke="#637EA1" stroke-width="0.6" stroke-linecap="round" stroke-linejoin="round"/>
<path d="M718.191 161.418C718.191 234.422 568.121 293.604 383 293.604C197.878 293.604 47.8076 234.422 47.8076 161.418C47.8076 88.413 197.878 29.2311 383 29.2311C568.121 29.2311 718.191 88.413 718.191 161.418Z" stroke="#627C9F" stroke-width="0.6" stroke-linecap="round" stroke-linejoin="round"/>
<path d="M695.267 168.206C695.267 236.907 555.46 292.599 383 292.599C210.539 292.599 70.7324 236.907 70.7324 168.206C70.7324 99.5063 210.539 43.8138 383 43.8138C555.46 43.8138 695.267 99.5063 695.267 168.206Z" stroke="#627A9D" stroke-width="0.6" stroke-linecap="round" stroke-linejoin="round"/>
<path d="M672.784 175.247C672.784 239.226 543.043 291.091 382.999 291.091C222.956 291.091 93.2148 239.226 93.2148 175.247C93.2148 111.268 222.956 59.4022 382.999 59.4022C543.043 59.4022 672.784 111.268 672.784 175.247Z" stroke="#61779B" stroke-width="0.6" stroke-linecap="round" stroke-linejoin="round"/>
<path d="M649.751 183.292C649.751 242.828 530.322 291.091 383 291.091C235.677 291.091 116.248 242.828 116.248 183.292C116.248 123.756 235.677 75.4927 383 75.4927C530.322 75.4927 649.751 123.756 649.751 183.292Z" stroke="#607598" stroke-width="0.6" stroke-linecap="round" stroke-linejoin="round"/>
<path d="M627.444 190.834C627.444 245.649 518.002 290.085 382.999 290.085C247.996 290.085 138.555 245.649 138.555 190.834C138.555 136.019 247.996 91.5831 382.999 91.5831C518.002 91.5831 627.444 136.019 627.444 190.834Z" stroke="#5F7497" stroke-width="0.6" stroke-linecap="round" stroke-linejoin="round"/>
<path d="M605.907 199.633C605.907 249.588 506.221 290.084 383.251 290.084C260.281 290.084 160.594 249.588 160.594 199.633C160.594 149.678 260.281 109.181 383.251 109.181C506.221 109.181 605.907 149.678 605.907 199.633Z" stroke="#5E7093" stroke-width="0.6" stroke-linecap="round" stroke-linejoin="round"/>
<path d="M583.756 208.685C583.756 253.641 494.1 290.085 383.503 290.085C272.906 290.085 183.249 253.641 183.249 208.685C183.249 163.728 272.906 127.284 383.503 127.284C494.1 127.284 583.756 163.728 583.756 208.685Z" stroke="#5F7195" stroke-width="0.6" stroke-linecap="round" stroke-linejoin="round"/>
<path d="M561.046 219.408C561.046 260.012 481.557 292.929 383.502 292.929C285.448 292.929 205.959 260.012 205.959 219.408C205.959 178.804 285.448 145.888 383.502 145.888C481.557 145.888 561.046 178.804 561.046 219.408Z" stroke="#5D6A8E" stroke-width="0.6" stroke-linecap="round" stroke-linejoin="round"/>
<path d="M538.598 229.898C538.598 265.495 469.159 294.352 383.503 294.352C297.846 294.352 228.408 265.495 228.408 229.898C228.408 194.302 297.846 165.445 383.503 165.445C469.159 165.445 538.598 194.302 538.598 229.898Z" stroke="#5C688C" stroke-width="0.6" stroke-linecap="round" stroke-linejoin="round"/>
<path d="M516.372 242.697C516.372 273.581 456.884 298.618 383.502 298.618C310.12 298.618 250.632 273.581 250.632 242.697C250.632 211.813 310.12 186.777 383.502 186.777C456.884 186.777 516.372 211.813 516.372 242.697Z" stroke="#5B6488" stroke-width="0.6" stroke-linecap="round" stroke-linejoin="round"/>
<path d="M494.837 256.92C494.837 282.699 444.991 303.596 383.502 303.596C322.013 303.596 272.166 282.699 272.166 256.92C272.166 231.142 322.013 210.244 383.502 210.244C444.991 210.244 494.837 231.142 494.837 256.92Z" stroke="#5A6185" stroke-width="0.6" stroke-linecap="round" stroke-linejoin="round"/>
<path d="M472.751 273.986C472.751 294.659 432.793 311.418 383.502 311.418C334.211 311.418 294.253 294.659 294.253 273.986C294.253 253.313 334.211 236.554 383.502 236.554C432.793 236.554 472.751 253.313 472.751 273.986Z" stroke="#585D82" stroke-width="0.6" stroke-linecap="round" stroke-linejoin="round"/>
<path d="M319.813 296.742C319.813 280.586 348.328 267.488 383.502 267.488C418.676 267.488 447.191 280.586 447.191 296.742" stroke="#57587D" stroke-width="0.6" stroke-linecap="round" stroke-linejoin="round"/>
<path d="M736.14 573.795C736.14 675.229 578.35 757.457 383.706 757.457C189.063 757.457 31.2734 675.229 31.2734 573.795C31.2734 472.361 189.063 390.133 383.706 390.133C578.35 390.133 736.14 472.361 736.14 573.795V573.795Z" stroke="#637EA1" stroke-width="0.6" stroke-linecap="round" stroke-linejoin="round"/>
<path d="M715.756 564.595C715.756 660.114 567.092 737.547 383.706 737.547C200.321 737.547 51.6572 660.114 51.6572 564.595C51.6572 469.076 200.321 391.642 383.706 391.642C567.092 391.642 715.756 469.076 715.756 564.595V564.595Z" stroke="#637EA1" stroke-width="0.6" stroke-linecap="round" stroke-linejoin="round"/>
<path d="M696.233 555.795C696.233 644.788 556.31 716.931 383.706 716.931C211.102 716.931 71.1787 644.788 71.1787 555.795C71.1787 466.802 211.102 394.659 383.706 394.659C556.31 394.659 696.233 466.802 696.233 555.795V555.795Z" stroke="#637EA1" stroke-width="0.6" stroke-linecap="round" stroke-linejoin="round"/>
<path d="M675.609 546.492C675.609 629.237 544.92 696.314 383.706 696.314C222.493 696.314 91.8037 629.237 91.8037 546.492C91.8037 463.748 222.493 396.67 383.706 396.67C544.92 396.67 675.609 463.748 675.609 546.492V546.492Z" stroke="#637EA1" stroke-width="0.6" stroke-linecap="round" stroke-linejoin="round"/>
<path d="M654.983 536.939C654.983 613.574 533.528 675.699 383.705 675.699C233.883 675.699 112.428 613.574 112.428 536.939C112.428 460.304 233.883 398.179 383.705 398.179C533.528 398.179 654.983 460.304 654.983 536.939V536.939Z" stroke="#627C9F" stroke-width="0.6" stroke-linecap="round" stroke-linejoin="round"/>
<path d="M634.099 526.63C634.099 597.294 521.994 654.579 383.706 654.579C245.417 654.579 133.312 597.294 133.312 526.63C133.312 455.966 245.417 398.681 383.706 398.681C521.994 398.681 634.099 455.966 634.099 526.63V526.63Z" stroke="#607699" stroke-width="0.6" stroke-linecap="round" stroke-linejoin="round"/>
<path d="M613.953 517.579C613.953 582.134 510.868 634.466 383.706 634.466C256.544 634.466 153.459 582.134 153.459 517.579C153.459 453.024 256.544 400.692 383.706 400.692C510.868 400.692 613.953 453.024 613.953 517.579V517.579Z" stroke="#607699" stroke-width="0.6" stroke-linecap="round" stroke-linejoin="round"/>
<path d="M592.444 507.272C592.444 565.856 498.989 613.347 383.706 613.347C268.423 613.347 174.968 565.856 174.968 507.272C174.968 448.687 268.423 401.196 383.706 401.196C498.989 401.196 592.444 448.687 592.444 507.272V507.272Z" stroke="#5F7396" stroke-width="0.6" stroke-linecap="round" stroke-linejoin="round"/>
<path d="M573.614 496.713C573.614 548.632 488.589 590.721 383.706 590.721C278.823 590.721 193.799 548.632 193.799 496.713C193.799 444.794 278.823 402.705 383.706 402.705C488.589 402.705 573.614 444.794 573.614 496.713V496.713Z" stroke="#5E7093" stroke-width="0.6" stroke-linecap="round" stroke-linejoin="round"/>
<path d="M552.397 485.65C552.397 531.46 476.871 568.596 383.705 568.596C290.54 568.596 215.014 531.46 215.014 485.65C215.014 439.841 290.54 402.705 383.705 402.705C476.871 402.705 552.397 439.841 552.397 485.65V485.65Z" stroke="#5D6C90" stroke-width="0.6" stroke-linecap="round" stroke-linejoin="round"/>
<path d="M509.929 460.005C509.929 494.429 453.417 522.335 383.706 522.335C313.995 522.335 257.482 494.429 257.482 460.005C257.482 425.581 313.995 397.676 383.706 397.676C453.417 397.676 509.929 425.581 509.929 460.005V460.005Z" stroke="#5B6589" stroke-width="0.6" stroke-linecap="round" stroke-linejoin="round"/>
<path d="M531.547 474.085C531.547 513.785 465.356 545.968 383.705 545.968C302.055 545.968 235.864 513.785 235.864 474.085C235.864 434.385 302.055 402.201 383.705 402.201C465.356 402.201 531.547 434.385 531.547 474.085V474.085Z" stroke="#5C698D" stroke-width="0.6" stroke-linecap="round" stroke-linejoin="round"/>
<path d="M489.714 444.92C489.714 473.512 442.253 496.69 383.706 496.69C325.16 496.69 277.698 473.512 277.698 444.92C277.698 416.328 325.16 393.15 383.706 393.15C442.253 393.15 489.714 416.328 489.714 444.92V444.92Z" stroke="#5775A2" stroke-width="0.6" stroke-linecap="round" stroke-linejoin="round"/>
<path d="M468.222 427.321C468.222 450.291 430.158 468.911 383.203 468.911C336.249 468.911 298.185 450.291 298.185 427.321C298.185 404.352 336.249 385.731 383.203 385.731C430.158 385.731 468.222 404.352 468.222 427.321V427.321Z" stroke="#595D82" stroke-width="0.6" stroke-linecap="round" stroke-linejoin="round"/>
<path d="M439.141 392.3C442.955 396.247 445.09 400.662 445.09 405.323C445.09 422.113 417.382 435.724 383.203 435.724C349.024 435.724 321.316 422.113 321.316 405.323C321.316 400.919 323.222 396.735 326.65 392.957" stroke="#57587D" stroke-width="0.6" stroke-linecap="round" stroke-linejoin="round"/>
<path d="M736.14 573.795C736.14 675.229 578.35 757.457 383.706 757.457C189.063 757.457 31.2734 675.229 31.2734 573.795C31.2734 472.361 189.063 390.133 383.706 390.133C578.35 390.133 736.14 472.361 736.14 573.795V573.795Z" stroke="#637EA1" stroke-width="0.6" stroke-linecap="round" stroke-linejoin="round"/>
<path d="M756.861 583.426C756.861 690.734 589.794 777.724 383.706 777.724C177.618 777.724 10.5508 690.734 10.5508 583.426C10.5508 476.118 177.618 389.127 383.706 389.127C589.794 389.127 756.861 476.118 756.861 583.426V583.426Z" stroke="#567DAE" stroke-width="0.6" stroke-linecap="round" stroke-linejoin="round"/>
</svg>
